<?xml version="1.0" encoding="UTF-8" standalone="no"?>
<!DOCTYPE svg PUBLIC "-//W3C//DTD SVG 1.1//EN" "http://www.w3.org/Graphics/SVG/1.1/DTD/svg11.dtd">
<svg version="1.1" xmlns="http://www.w3.org/2000/svg" xmlns:xlink="http://www.w3.org/1999/xlink" preserveAspectRatio="xMidYMid meet" viewBox="56.11020692924125 62.86611569931206 122.28831228460098 111.02303506222925" width="114.29" height="103.02"><defs><path d="M172.92 110.96C173 110.79 173.06 110.61 173.09 110.42C173.82 106.67 173.63 107.66 173.77 106.9C175.65 97.2 173.25 87.16 167.19 79.36C162.53 73.37 167.59 79.88 165.3 76.94C154.61 63.19 133.7 63.58 123.54 77.73C122.65 78.96 120.44 82.05 116.89 86.98C113.3 82.14 111.06 79.11 110.16 77.89C99.62 63.67 78.36 63.59 67.72 77.73C65.62 80.52 71.58 72.61 67.21 78.41C60.88 86.82 58.63 97.62 61.08 107.86C61.36 109.05 60.4 105.03 61.2 108.36C62.06 111.99 63.35 115.5 65.02 118.83C66.43 121.63 63.55 115.91 63.81 116.43C69.25 127.23 76.89 136.78 86.23 144.46C90.36 147.85 100.68 156.33 117.19 169.89C133.55 156.54 143.78 148.2 147.87 144.86C157.6 136.93 165.42 126.92 170.76 115.56C171.21 114.59 170.86 115.33 172.92 110.96Z" id="fhz3dhnc7"></path></defs><g><g><use xlink:href="#fhz3dhnc7" opacity="1" fill="#121212" fill-opacity="1"></use><g><use xlink:href="#fhz3dhnc7" opacity="1" fill-opacity="0" stroke="#121212" stroke-width="8" stroke-opacity="1"></use></g></g></g></svg>